<mxfile host="app.diagrams.net" agent="Mozilla/5.0 (Windows NT 10.0; Win64; x64) AppleWebKit/537.36 (KHTML, like Gecko) Chrome/134.0.0.0 Safari/537.36" version="24.8.4">
  <diagram id="C5RBs43oDa-KdzZeNtuy" name="Page-1">
    <mxGraphModel dx="4014" dy="2916" grid="1" gridSize="10" guides="1" tooltips="1" connect="1" arrows="1" fold="1" page="1" pageScale="1" pageWidth="827" pageHeight="1169" math="0" shadow="0">
      <root>
        <mxCell id="WIyWlLk6GJQsqaUBKTNV-0" />
        <mxCell id="WIyWlLk6GJQsqaUBKTNV-1" parent="WIyWlLk6GJQsqaUBKTNV-0" />
        <mxCell id="S5fEqLQ17SnwDprI1mbb-0" value="&lt;div style=&quot;font-family: Consolas, &amp;quot;Courier New&amp;quot;, monospace; font-size: 14px; line-height: 19px; white-space: pre;&quot;&gt;&lt;font style=&quot;background-color: rgb(0, 0, 0);&quot; color=&quot;#ffffff&quot;&gt;AuthentService&lt;/font&gt;&lt;/div&gt;" style="ellipse;whiteSpace=wrap;html=1;aspect=fixed;" vertex="1" parent="WIyWlLk6GJQsqaUBKTNV-1">
          <mxGeometry x="600" y="450" width="150" height="150" as="geometry" />
        </mxCell>
        <mxCell id="S5fEqLQ17SnwDprI1mbb-1" value="&lt;div style=&quot;background-color: rgb(31, 31, 37); font-family: Consolas, &amp;quot;Courier New&amp;quot;, monospace; font-size: 14px; line-height: 19px; white-space: pre;&quot;&gt;&lt;div style=&quot;line-height: 19px;&quot;&gt;&lt;font color=&quot;#ffffff&quot;&gt;EmailService&lt;/font&gt;&lt;/div&gt;&lt;/div&gt;" style="ellipse;whiteSpace=wrap;html=1;aspect=fixed;" vertex="1" parent="WIyWlLk6GJQsqaUBKTNV-1">
          <mxGeometry x="413" y="290" width="150" height="150" as="geometry" />
        </mxCell>
        <mxCell id="S5fEqLQ17SnwDprI1mbb-2" value="&lt;div style=&quot;background-color: rgb(31, 31, 37); font-family: Consolas, &amp;quot;Courier New&amp;quot;, monospace; font-size: 14px; line-height: 19px; white-space: pre;&quot;&gt;&lt;div style=&quot;line-height: 19px;&quot;&gt;&lt;div style=&quot;line-height: 19px;&quot;&gt;&lt;font color=&quot;#ffffff&quot;&gt;ProductsService&lt;/font&gt;&lt;/div&gt;&lt;/div&gt;&lt;/div&gt;" style="ellipse;whiteSpace=wrap;html=1;aspect=fixed;" vertex="1" parent="WIyWlLk6GJQsqaUBKTNV-1">
          <mxGeometry x="70" y="885" width="150" height="150" as="geometry" />
        </mxCell>
        <mxCell id="S5fEqLQ17SnwDprI1mbb-3" value="&lt;div style=&quot;background-color: rgb(31, 31, 37); font-family: Consolas, &amp;quot;Courier New&amp;quot;, monospace; font-size: 14px; line-height: 19px; white-space: pre;&quot;&gt;&lt;div style=&quot;line-height: 19px;&quot;&gt;&lt;div style=&quot;line-height: 19px;&quot;&gt;&lt;div style=&quot;line-height: 19px;&quot;&gt;&lt;font color=&quot;#ffffff&quot;&gt;Keyservice&lt;/font&gt;&lt;/div&gt;&lt;/div&gt;&lt;/div&gt;&lt;/div&gt;" style="ellipse;whiteSpace=wrap;html=1;aspect=fixed;" vertex="1" parent="WIyWlLk6GJQsqaUBKTNV-1">
          <mxGeometry x="-20" y="300" width="150" height="150" as="geometry" />
        </mxCell>
        <mxCell id="S5fEqLQ17SnwDprI1mbb-4" value="&lt;div style=&quot;background-color: rgb(31, 31, 37); font-family: Consolas, &amp;quot;Courier New&amp;quot;, monospace; font-size: 14px; line-height: 19px; white-space: pre;&quot;&gt;&lt;div style=&quot;line-height: 19px;&quot;&gt;&lt;div style=&quot;line-height: 19px;&quot;&gt;&lt;div style=&quot;color: rgb(191, 201, 215); line-height: 19px;&quot;&gt;&lt;span style=&quot;color: #97adff;&quot;&gt;M_PRICE-Service&lt;/span&gt;&lt;/div&gt;&lt;/div&gt;&lt;/div&gt;&lt;/div&gt;" style="ellipse;whiteSpace=wrap;html=1;aspect=fixed;" vertex="1" parent="WIyWlLk6GJQsqaUBKTNV-1">
          <mxGeometry x="1020" y="330" width="150" height="150" as="geometry" />
        </mxCell>
        <mxCell id="S5fEqLQ17SnwDprI1mbb-5" value="Products db" style="shape=cylinder3;whiteSpace=wrap;html=1;boundedLbl=1;backgroundOutline=1;size=15;" vertex="1" parent="WIyWlLk6GJQsqaUBKTNV-1">
          <mxGeometry x="340" y="880" width="130" height="155" as="geometry" />
        </mxCell>
        <mxCell id="S5fEqLQ17SnwDprI1mbb-6" value="Auth db" style="shape=cylinder3;whiteSpace=wrap;html=1;boundedLbl=1;backgroundOutline=1;size=15;" vertex="1" parent="WIyWlLk6GJQsqaUBKTNV-1">
          <mxGeometry x="40" y="50" width="130" height="155" as="geometry" />
        </mxCell>
        <mxCell id="S5fEqLQ17SnwDprI1mbb-7" value="CACHE LAYER (REDIS)" style="rhombus;whiteSpace=wrap;html=1;" vertex="1" parent="WIyWlLk6GJQsqaUBKTNV-1">
          <mxGeometry x="270" y="510" width="160" height="130" as="geometry" />
        </mxCell>
        <mxCell id="S5fEqLQ17SnwDprI1mbb-10" value="RABBITMQ" style="shape=datastore;whiteSpace=wrap;html=1;" vertex="1" parent="WIyWlLk6GJQsqaUBKTNV-1">
          <mxGeometry x="640" y="45" width="120" height="160" as="geometry" />
        </mxCell>
        <mxCell id="S5fEqLQ17SnwDprI1mbb-12" value="Auth Db&lt;div&gt;&lt;br&gt;&lt;/div&gt;" style="shape=cylinder3;whiteSpace=wrap;html=1;boundedLbl=1;backgroundOutline=1;size=15;" vertex="1" parent="WIyWlLk6GJQsqaUBKTNV-1">
          <mxGeometry x="510" y="690" width="130" height="155" as="geometry" />
        </mxCell>
        <mxCell id="S5fEqLQ17SnwDprI1mbb-15" value="" style="shape=flexArrow;endArrow=classic;startArrow=classic;html=1;rounded=0;entryX=0.04;entryY=0.591;entryDx=0;entryDy=0;entryPerimeter=0;exitX=1;exitY=0.5;exitDx=0;exitDy=0;" edge="1" parent="WIyWlLk6GJQsqaUBKTNV-1" source="S5fEqLQ17SnwDprI1mbb-7" target="S5fEqLQ17SnwDprI1mbb-0">
          <mxGeometry width="100" height="100" relative="1" as="geometry">
            <mxPoint x="450" y="620" as="sourcePoint" />
            <mxPoint x="550" y="520" as="targetPoint" />
          </mxGeometry>
        </mxCell>
        <mxCell id="S5fEqLQ17SnwDprI1mbb-16" value="" style="shape=flexArrow;endArrow=classic;startArrow=classic;html=1;rounded=0;exitX=0.723;exitY=0.029;exitDx=0;exitDy=0;exitPerimeter=0;entryX=0.313;entryY=0.846;entryDx=0;entryDy=0;entryPerimeter=0;" edge="1" parent="WIyWlLk6GJQsqaUBKTNV-1" source="S5fEqLQ17SnwDprI1mbb-2" target="S5fEqLQ17SnwDprI1mbb-7">
          <mxGeometry width="100" height="100" relative="1" as="geometry">
            <mxPoint x="140" y="817.5" as="sourcePoint" />
            <mxPoint x="240" y="717.5" as="targetPoint" />
          </mxGeometry>
        </mxCell>
        <mxCell id="S5fEqLQ17SnwDprI1mbb-18" value="" style="shape=flexArrow;endArrow=classic;startArrow=classic;html=1;rounded=0;entryX=0.263;entryY=0.94;entryDx=0;entryDy=0;entryPerimeter=0;exitX=0.944;exitY=0.129;exitDx=0;exitDy=0;exitPerimeter=0;" edge="1" parent="WIyWlLk6GJQsqaUBKTNV-1" source="S5fEqLQ17SnwDprI1mbb-12" target="S5fEqLQ17SnwDprI1mbb-0">
          <mxGeometry width="100" height="100" relative="1" as="geometry">
            <mxPoint x="440" y="690" as="sourcePoint" />
            <mxPoint x="540" y="590" as="targetPoint" />
          </mxGeometry>
        </mxCell>
        <mxCell id="S5fEqLQ17SnwDprI1mbb-19" value="" style="shape=flexArrow;endArrow=classic;startArrow=classic;html=1;rounded=0;exitX=0.99;exitY=0.296;exitDx=0;exitDy=0;exitPerimeter=0;entryX=0;entryY=0;entryDx=0;entryDy=46.25;entryPerimeter=0;" edge="1" parent="WIyWlLk6GJQsqaUBKTNV-1" source="S5fEqLQ17SnwDprI1mbb-2" target="S5fEqLQ17SnwDprI1mbb-5">
          <mxGeometry width="100" height="100" relative="1" as="geometry">
            <mxPoint x="210" y="880" as="sourcePoint" />
            <mxPoint x="310" y="780" as="targetPoint" />
          </mxGeometry>
        </mxCell>
        <mxCell id="S5fEqLQ17SnwDprI1mbb-20" value="" style="shape=flexArrow;endArrow=classic;startArrow=classic;html=1;rounded=0;exitX=0.993;exitY=0.321;exitDx=0;exitDy=0;exitPerimeter=0;" edge="1" parent="WIyWlLk6GJQsqaUBKTNV-1" source="S5fEqLQ17SnwDprI1mbb-3" target="S5fEqLQ17SnwDprI1mbb-7">
          <mxGeometry width="100" height="100" relative="1" as="geometry">
            <mxPoint x="170" y="420" as="sourcePoint" />
            <mxPoint x="270" y="320" as="targetPoint" />
          </mxGeometry>
        </mxCell>
        <mxCell id="S5fEqLQ17SnwDprI1mbb-21" value="" style="shape=flexArrow;endArrow=classic;startArrow=classic;html=1;rounded=0;exitX=0.561;exitY=0.01;exitDx=0;exitDy=0;exitPerimeter=0;entryX=0.435;entryY=0.996;entryDx=0;entryDy=0;entryPerimeter=0;" edge="1" parent="WIyWlLk6GJQsqaUBKTNV-1" source="S5fEqLQ17SnwDprI1mbb-3" target="S5fEqLQ17SnwDprI1mbb-6">
          <mxGeometry width="100" height="100" relative="1" as="geometry">
            <mxPoint x="130" y="330" as="sourcePoint" />
            <mxPoint x="230" y="230" as="targetPoint" />
          </mxGeometry>
        </mxCell>
        <mxCell id="S5fEqLQ17SnwDprI1mbb-22" value="Auth db&lt;div&gt;REPLICA&lt;/div&gt;" style="shape=cylinder3;whiteSpace=wrap;html=1;boundedLbl=1;backgroundOutline=1;size=15;" vertex="1" parent="WIyWlLk6GJQsqaUBKTNV-1">
          <mxGeometry x="-110" y="45" width="130" height="155" as="geometry" />
        </mxCell>
        <mxCell id="S5fEqLQ17SnwDprI1mbb-23" value="Auth db&lt;div&gt;REPLICA&lt;/div&gt;" style="shape=cylinder3;whiteSpace=wrap;html=1;boundedLbl=1;backgroundOutline=1;size=15;" vertex="1" parent="WIyWlLk6GJQsqaUBKTNV-1">
          <mxGeometry x="-270" y="40" width="130" height="155" as="geometry" />
        </mxCell>
        <mxCell id="S5fEqLQ17SnwDprI1mbb-24" value="" style="endArrow=none;dashed=1;html=1;dashPattern=1 3;strokeWidth=2;rounded=0;" edge="1" parent="WIyWlLk6GJQsqaUBKTNV-1">
          <mxGeometry width="50" height="50" relative="1" as="geometry">
            <mxPoint x="-390" y="190" as="sourcePoint" />
            <mxPoint x="-290" y="190" as="targetPoint" />
          </mxGeometry>
        </mxCell>
        <mxCell id="S5fEqLQ17SnwDprI1mbb-26" value="&lt;div style=&quot;background-color: rgb(31, 31, 37); font-family: Consolas, &amp;quot;Courier New&amp;quot;, monospace; font-size: 14px; line-height: 19px; white-space: pre;&quot;&gt;&lt;div style=&quot;line-height: 19px;&quot;&gt;&lt;div style=&quot;line-height: 19px;&quot;&gt;&lt;div style=&quot;line-height: 19px;&quot;&gt;&lt;font color=&quot;#ffffff&quot;&gt;Keyservice&lt;/font&gt;&lt;/div&gt;&lt;div style=&quot;line-height: 19px;&quot;&gt;&lt;font color=&quot;#ffffff&quot;&gt;[REPLICA]&lt;/font&gt;&lt;/div&gt;&lt;/div&gt;&lt;/div&gt;&lt;/div&gt;" style="ellipse;whiteSpace=wrap;html=1;aspect=fixed;" vertex="1" parent="WIyWlLk6GJQsqaUBKTNV-1">
          <mxGeometry x="-170" y="300" width="150" height="150" as="geometry" />
        </mxCell>
        <mxCell id="S5fEqLQ17SnwDprI1mbb-27" value="" style="endArrow=none;dashed=1;html=1;dashPattern=1 3;strokeWidth=2;rounded=0;" edge="1" parent="WIyWlLk6GJQsqaUBKTNV-1">
          <mxGeometry width="50" height="50" relative="1" as="geometry">
            <mxPoint x="-280" y="440" as="sourcePoint" />
            <mxPoint x="-180" y="440" as="targetPoint" />
          </mxGeometry>
        </mxCell>
        <mxCell id="S5fEqLQ17SnwDprI1mbb-29" value="" style="endArrow=none;dashed=1;html=1;dashPattern=1 3;strokeWidth=2;rounded=0;" edge="1" parent="WIyWlLk6GJQsqaUBKTNV-1">
          <mxGeometry width="50" height="50" relative="1" as="geometry">
            <mxPoint x="670" y="840" as="sourcePoint" />
            <mxPoint x="770" y="840" as="targetPoint" />
          </mxGeometry>
        </mxCell>
        <mxCell id="S5fEqLQ17SnwDprI1mbb-30" value="" style="endArrow=none;dashed=1;html=1;dashPattern=1 3;strokeWidth=2;rounded=0;" edge="1" parent="WIyWlLk6GJQsqaUBKTNV-1">
          <mxGeometry width="50" height="50" relative="1" as="geometry">
            <mxPoint x="490" y="1030" as="sourcePoint" />
            <mxPoint x="590" y="1030" as="targetPoint" />
          </mxGeometry>
        </mxCell>
        <mxCell id="S5fEqLQ17SnwDprI1mbb-31" value="" style="endArrow=none;dashed=1;html=1;dashPattern=1 3;strokeWidth=2;rounded=0;" edge="1" parent="WIyWlLk6GJQsqaUBKTNV-1">
          <mxGeometry width="50" height="50" relative="1" as="geometry">
            <mxPoint x="-30" y="1030" as="sourcePoint" />
            <mxPoint x="70" y="1030" as="targetPoint" />
          </mxGeometry>
        </mxCell>
        <mxCell id="S5fEqLQ17SnwDprI1mbb-32" value="" style="endArrow=none;dashed=1;html=1;dashPattern=1 3;strokeWidth=2;rounded=0;" edge="1" parent="WIyWlLk6GJQsqaUBKTNV-1">
          <mxGeometry width="50" height="50" relative="1" as="geometry">
            <mxPoint x="920" y="470" as="sourcePoint" />
            <mxPoint x="1020" y="470" as="targetPoint" />
          </mxGeometry>
        </mxCell>
        <mxCell id="S5fEqLQ17SnwDprI1mbb-34" value="" style="endArrow=none;dashed=1;html=1;dashPattern=1 3;strokeWidth=2;rounded=0;" edge="1" parent="WIyWlLk6GJQsqaUBKTNV-1">
          <mxGeometry width="50" height="50" relative="1" as="geometry">
            <mxPoint x="760" y="574.23" as="sourcePoint" />
            <mxPoint x="860" y="574.23" as="targetPoint" />
          </mxGeometry>
        </mxCell>
        <mxCell id="S5fEqLQ17SnwDprI1mbb-35" value="" style="shape=flexArrow;endArrow=classic;startArrow=classic;html=1;rounded=0;exitX=1;exitY=0;exitDx=0;exitDy=0;entryX=0;entryY=0.5;entryDx=0;entryDy=0;" edge="1" parent="WIyWlLk6GJQsqaUBKTNV-1" source="S5fEqLQ17SnwDprI1mbb-3" target="S5fEqLQ17SnwDprI1mbb-10">
          <mxGeometry width="100" height="100" relative="1" as="geometry">
            <mxPoint x="120" y="305" as="sourcePoint" />
            <mxPoint x="220" y="205" as="targetPoint" />
          </mxGeometry>
        </mxCell>
        <mxCell id="S5fEqLQ17SnwDprI1mbb-36" value="" style="shape=flexArrow;endArrow=classic;html=1;rounded=0;exitX=0.15;exitY=0.95;exitDx=0;exitDy=0;exitPerimeter=0;entryX=1;entryY=0;entryDx=0;entryDy=0;" edge="1" parent="WIyWlLk6GJQsqaUBKTNV-1" source="S5fEqLQ17SnwDprI1mbb-10" target="S5fEqLQ17SnwDprI1mbb-1">
          <mxGeometry width="50" height="50" relative="1" as="geometry">
            <mxPoint x="680" y="280" as="sourcePoint" />
            <mxPoint x="600" y="320" as="targetPoint" />
          </mxGeometry>
        </mxCell>
        <mxCell id="S5fEqLQ17SnwDprI1mbb-37" value="&lt;span style=&quot;font-size: 24px;&quot;&gt;EACH SERVICE HAS IT&#39;S OWN REPLICA SAME FOR DB / QUEUE / CACHE LAYER&lt;/span&gt;" style="text;html=1;align=center;verticalAlign=middle;whiteSpace=wrap;rounded=0;" vertex="1" parent="WIyWlLk6GJQsqaUBKTNV-1">
          <mxGeometry x="-110" y="-110" width="827" height="90" as="geometry" />
        </mxCell>
        <mxCell id="S5fEqLQ17SnwDprI1mbb-38" value="" style="shape=flexArrow;endArrow=classic;html=1;rounded=0;exitX=0.5;exitY=0;exitDx=0;exitDy=0;entryX=0.5;entryY=1;entryDx=0;entryDy=0;" edge="1" parent="WIyWlLk6GJQsqaUBKTNV-1" source="S5fEqLQ17SnwDprI1mbb-0" target="S5fEqLQ17SnwDprI1mbb-10">
          <mxGeometry width="50" height="50" relative="1" as="geometry">
            <mxPoint x="667" y="430" as="sourcePoint" />
            <mxPoint x="717" y="380" as="targetPoint" />
          </mxGeometry>
        </mxCell>
        <mxCell id="S5fEqLQ17SnwDprI1mbb-39" value="" style="shape=flexArrow;endArrow=classic;html=1;rounded=0;exitX=1;exitY=0.917;exitDx=0;exitDy=0;exitPerimeter=0;entryX=0.333;entryY=0;entryDx=0;entryDy=0;entryPerimeter=0;" edge="1" parent="WIyWlLk6GJQsqaUBKTNV-1" source="S5fEqLQ17SnwDprI1mbb-10" target="S5fEqLQ17SnwDprI1mbb-4">
          <mxGeometry width="50" height="50" relative="1" as="geometry">
            <mxPoint x="944" y="195" as="sourcePoint" />
            <mxPoint x="827" y="310" as="targetPoint" />
          </mxGeometry>
        </mxCell>
        <mxCell id="S5fEqLQ17SnwDprI1mbb-40" value="" style="endArrow=none;dashed=1;html=1;dashPattern=1 3;strokeWidth=2;rounded=0;" edge="1" parent="WIyWlLk6GJQsqaUBKTNV-1">
          <mxGeometry width="50" height="50" relative="1" as="geometry">
            <mxPoint x="278.5" y="370" as="sourcePoint" />
            <mxPoint x="410" y="370" as="targetPoint" />
          </mxGeometry>
        </mxCell>
        <mxCell id="S5fEqLQ17SnwDprI1mbb-41" value="" style="endArrow=none;dashed=1;html=1;dashPattern=1 3;strokeWidth=2;rounded=0;" edge="1" parent="WIyWlLk6GJQsqaUBKTNV-1">
          <mxGeometry width="50" height="50" relative="1" as="geometry">
            <mxPoint x="770" y="180" as="sourcePoint" />
            <mxPoint x="870" y="180" as="targetPoint" />
          </mxGeometry>
        </mxCell>
      </root>
    </mxGraphModel>
  </diagram>
</mxfile>
